<svg width="1440" height="175" fill="none" xmlns="http://www.w3.org/2000/svg"><g clip-path="url(#clip0_1206_74494)" fill="#E3E3E3"><path d="M0 128h18v47H0zM26 163h18v12H26zM52 128h18v47H52zM78 163h18v12H78zM104 128h18v47h-18zM130 163h18v12h-18zM156 128h18v47h-18zM182 81h18v94h-18zM208 128h18v47h-18zM234 81h18v94h-18zM260 163h18v12h-18zM286 155h18v20h-18zM312 163h18v12h-18zM338 102h18v73h-18zM364 81h18v94h-18zM390 102h18v73h-18zM416 128h18v47h-18zM442 30h18v145h-18zM468 128h18v47h-18zM494 102h18v73h-18zM520 81h18v94h-18zM546 102h18v73h-18zM572 81h18v94h-18zM598 102h18v73h-18zM624 128h18v47h-18zM650 102h18v73h-18zM676 89h18v86h-18zM702 42h18v133h-18zM728 89h18v86h-18zM754 146h18v29h-18zM780 63h18v112h-18zM806 163h18v12h-18zM832 128h18v47h-18zM858 163h18v12h-18zM884 128h18v47h-18zM910 81h18v94h-18zM936 128h18v47h-18zM962 81h18v94h-18zM988 163h18v12h-18zM1014 155h18v20h-18zM1040 163h18v12h-18zM1066 102h18v73h-18zM1092 81h18v94h-18zM1118 102h18v73h-18zM1144 128h18v47h-18zM1170 30h18v145h-18zM1196 128h18v47h-18zM1222 102h18v73h-18zM1248 81h18v94h-18zM1274 0h18v175h-18zM1300 36h18v139h-18zM1326 102h18v73h-18zM1352 128h18v47h-18zM1378 102h18v73h-18zM1404 128h18v47h-18zM1430 102h18v73h-18z"/></g><defs><clipPath id="clip0_1206_74494"><path fill="#fff" d="M0 0h1440v175H0z"/></clipPath></defs></svg>