<svg width="42" height="48" viewBox="0 0 42 48" fill="none" xmlns="http://www.w3.org/2000/svg">
<path d="M40.5136 15.9426C38.0576 12.8924 34.6062 11.1223 31.3466 11.1223C27.0435 11.1223 25.2233 13.1627 22.2336 13.1627C19.151 13.1627 16.809 11.1283 13.0877 11.1283C9.43228 11.1283 5.54 13.3409 3.07209 17.1246C-0.397377 22.4528 0.196361 32.4705 5.81888 41.0032C7.83099 44.0563 10.5178 47.4896 14.0322 47.5193C17.1599 47.549 18.0415 45.5324 22.2786 45.5116C26.5157 45.4879 27.3194 47.546 30.441 47.5134C33.9585 47.4866 36.7922 43.6821 38.8043 40.629C40.2467 38.4401 40.7834 37.3382 41.9019 34.8672C33.7665 31.7993 32.4621 20.3411 40.5136 15.9426Z" fill="#010101"/>
<path d="M30.4063 0C27.8485 0.175228 24.8588 1.79683 23.1165 3.90848C21.5272 5.82411 20.2198 8.66935 20.7296 11.4344C23.5244 11.5205 26.4121 9.8603 28.0853 7.71301C29.6507 5.71422 30.8351 2.88681 30.4063 0Z" fill="#010101"/>
</svg>
